<svg xmlns="http://www.w3.org/2000/svg" data-name="Layer 1" viewBox="0 0 128 128"><path d="M93.93946 48.35242l.06061-22.34778A3.99922 3.99922 0 0 0 87.1529 23.197C81.97455 28.485 68.70057 42.01691 39.0542 46.77924a5.99549 5.99549 0 0 0-5.05414-2.77948h-18A6.00659 6.00659 0 0 0 10.238 48.34283c-1.19507-.04156-2.40057-.09064-3.6344-.16046a6.017 6.017 0 0 0-4.48291 1.668A6.68661 6.68661 0 0 0 .03376 54.67749l-.03369 12.335A6.69548 6.69548 0 0 0 2.10993 71.908a5.87828 5.87828 0 0 0 4.46289 1.62109c1.21478-.08521 2.40222-.14856 3.57971-.20386a6.00332 6.00332 0 0 0 5.59833 4.66193c.78284 1.60419 1.54089 3.20032 2.18524 4.60248 3.21 6.25684 1.61865 14.49414.78564 17.74609a2.961 2.961 0 0 0 .851 2.93647 2.85889 2.85889 0 0 0 2.81647.56158l13.647-4.88184a2.97135 2.97135 0 0 0 1.7085-1.61621 3.05594 3.05594 0 0 0 .00977-2.41992L32.03132 81.68335A34.1122 34.1122 0 0 1 30.553 77.99976h3.447a6.00246 6.00246 0 0 0 5.31427-3.22424c28.97427 4.77117 42.3713 18.581 47.62223 24.00254a4.03476 4.03476 0 0 0 4.37551.92776 3.97218 3.97218 0 0 0 2.498-3.68555l.06061-22.34a13.95344 13.95344 0 0 0 .06873-25.32788zM10.00007 69.32379c-1.22034.05927-2.45111.127-3.70654.215a1.94255 1.94255 0 0 1-1.45166-.55273 2.71712 2.71712 0 0 1-.8418-1.96191l.03369-12.33594a2.7025 2.7025 0 0 1 .83105-1.92676 2.03115 2.03115 0 0 1 1.5127-.585c1.21918.06891 2.42346.11737 3.62256.15881zM33.67048 95.54956l-10.62158 3.7998c.89941-4.43848 1.72168-12.19922-1.51562-18.50781-.23706-.51605-.71606-1.55048-1.33044-2.8418h6.14557a37.44958 37.44958 0 0 0 2.03741 5.33008zm2.32959-23.5498a2.00229 2.00229 0 0 1-2 2h-18a2.00229 2.00229 0 0 1-2-2v-22a2.00229 2.00229 0 0 1 2-2h18a2.00229 2.00229 0 0 1 2 2zM90 96l-.19037-.00513C84.30195 90.308 70.22651 75.8009 40.00007 70.82672v-20.193a102.82463 102.82463 0 0 0 25.39551-7.42206A76.4489 76.4489 0 0 0 90.00007 26zm3.88324-26.93634l.0437-16.09741a9.95748 9.95748 0 0 1-.0437 16.09741zM107.00007 54.99976a1.99269 1.99269 0 0 0 1.41406-.58594l6-6a1.99979 1.99979 0 0 0-2.82812-2.82812l-6 6a2 2 0 0 0 1.41406 3.41406zM105.586 70.41382l6 6a1.99979 1.99979 0 0 0 2.82813-2.82812l-6-6a1.99979 1.99979 0 0 0-2.82812 2.82813z" fill="#d85b53" class="color000000 svgShape"></path><circle cx="25" cy="61" r="2" transform="rotate(-89.883 25 61)" fill="#d85b53" class="color000000 svgShape"></circle><path d="M76.00153 16.99976a1.99155 1.99155 0 0 0 1.168-.377L89.68421 7.60492a1.99582 1.99582 0 0 0 3.84271.84015l2.32471-5.68848A2 2 0 0 0 93.73591.01733l-6.021.80273a1.997 1.997 0 0 0-.66315 3.75031L74.83063 13.37671a2.00041 2.00041 0 0 0 1.1709 3.623zM112.00153 13.99976a1.99651 1.99651 0 0 0 1.16113-.37207l9.27362-6.624a1.98105 1.98105 0 0 0 1.7547 1.06049 2.00189 2.00189 0 0 0 1.82813-1.1875l1.80811-4.06348A2.0002 2.0002 0 0 0 125.7569.0144L121.0738.58765a1.99311 1.99311 0 0 0-1.21832 3.34283l-9.018 6.44135a2.00041 2.00041 0 0 0 1.16406 3.62793z" fill="#d85b53" class="color000000 svgShape"></path><circle cx="105.469" cy="16.844" r="2" transform="rotate(-89.883 105.468 16.844)" fill="#d85b53" class="color000000 svgShape"></circle><circle cx="69" cy="20" r="2" transform="rotate(-89.883 69 20)" fill="#d85b53" class="color000000 svgShape"></circle><path d="M93.52692 119.55444a1.99567 1.99567 0 0 0-3.84271.84015L77.1695 111.37671a2.00046 2.00046 0 0 0-2.33887 3.24609L87.05158 123.429a1.99715 1.99715 0 0 0 .66333 3.75043l6.021.80273a2 2 0 0 0 2.11572-2.73926zM126.01911 121.1228a1.99017 1.99017 0 0 0-3.58282-.127l-9.27362-6.624a2.00045 2.00045 0 0 0-2.3252 3.25586l9.01868 6.44183a1.97679 1.97679 0 0 0-.52454 1.11383 2.00056 2.00056 0 0 0 1.74219 2.22852l4.68311.57324a2.04532 2.04532 0 0 0 .24365.01465 2 2 0 0 0 1.82666-2.81348z" fill="#d85b53" class="color000000 svgShape"></path><circle cx="105.469" cy="111.156" r="2" transform="translate(-.227 .216)" fill="#d85b53" class="color000000 svgShape"></circle><circle cx="69" cy="108" r="2" transform="translate(-.22 .141)" fill="#d85b53" class="color000000 svgShape"></circle><path d="M120.00007 60.99976a2.0001 2.0001 0 0 0-2-2h-10a2 2 0 0 0 0 4h10A2.0001 2.0001 0 0 0 120.00007 60.99976zM59.00007 32.99976a6 6 0 1 0-6-6A6.00656 6.00656 0 0 0 59.00007 32.99976zm0-8a2 2 0 1 1-2 2A2.00229 2.00229 0 0 1 59.00007 24.99976zM59.00007 94.99976a6 6 0 1 0 6 6A6.00656 6.00656 0 0 0 59.00007 94.99976zm0 8a2 2 0 1 1 2-2A2.00229 2.00229 0 0 1 59.00007 102.99976z" fill="#d85b53" class="color000000 svgShape"></path></svg>