<svg xmlns="http://www.w3.org/2000/svg" enable-background="new 0 0 52 52" viewBox="0 0 52 52"><path d="M33.05,40.52v1.93H7.42V9.55h25.63v1.93c0.1-0.01,0.21-0.02,0.31-0.02h2.69c0-4.27,0-6.46,0-6.46
		c0-2.2459-1.84461-4-4.01-4H8.42c-2.21,0-4,1.8-4,4v42c0,2.21,1.79,4,4,4h23.62c1.1,0,2.1-0.45,2.83-1.17
		c0.73-0.72,1.18-1.72,1.18-2.83v-6.46h-2.69C33.26,40.54,33.15,40.53,33.05,40.52z M28.39279,4.7752h0.3008c0.5522,0,1,0.4477,1,1
		c0,0.5522-0.4478,1-1,1h-0.3008c-0.5523,0-1-0.4478-1-1C27.39279,5.2229,27.84049,4.7752,28.39279,4.7752z M17.23069,4.7752h6
		c0.5522,0,1,0.4477,1,1c0,0.5522-0.4478,1-1,1h-6c-0.5523,0-1-0.4478-1-1C16.23069,5.2229,16.67839,4.7752,17.23069,4.7752z
		 M23.282,47.2278h-6.10211c-0.5522,0-1-0.4477-1-1c0-0.5522,0.4478-1,1-1H23.282c0.55219,0,1,0.4478,1,1
		C24.282,46.7801,23.83419,47.2278,23.282,47.2278z" fill="#d85b53" class="color000000 svgShape"></path><path d="M46.82,23.35l-1.93-0.49c-0.17-0.56-0.39-1.1-0.65-1.6l1.02-1.7c0.23-0.4,0.17-0.9-0.15-1.22l-2.39-2.39
		c-0.33-0.33-0.83-0.39-1.22-0.15l-1.72,1.02c-0.51-0.27-1.04-0.48-1.58-0.66l-0.49-1.94c-0.11-0.44-0.51-0.76-0.97-0.76h-3.38
		c-0.46,0-0.86,0.32-0.97,0.76l-0.49,1.93c-0.53,0.17-1.06,0.39-1.59,0.66l-1.71-1.02c-0.39-0.24-0.89-0.18-1.22,0.15l-2.39,2.39
		c-0.32,0.32-0.38,0.82-0.15,1.22l1.02,1.7c-0.27,0.51-0.49,1.05-0.66,1.61l-1.94,0.49c-0.44,0.11-0.75,0.51-0.75,0.96v3.38
		c0,0.46,0.31,0.86,0.75,0.97l1.95,0.49c0.17,0.56,0.39,1.09,0.64,1.59l-1.02,1.71c-0.24,0.39-0.17,0.9,0.15,1.22l2.39,2.39
		c0.33,0.33,0.83,0.39,1.22,0.15l1.72-1.02c0.5,0.26,1.03,0.48,1.58,0.66l0.5,1.94c0.11,0.44,0.51,0.75,0.97,0.75h3.37
		c0.46,0,0.86-0.31,0.97-0.75l0.49-1.94c0.53-0.17,1.06-0.39,1.58-0.66l1.72,1.03c0.4,0.24,0.9,0.18,1.23-0.15l2.38-2.39
		c0.32-0.32,0.38-0.82,0.15-1.21l-1.02-1.73c0.26-0.51,0.48-1.04,0.65-1.58l1.94-0.49c0.45-0.11,0.76-0.51,0.76-0.97v-3.39
		C47.58,23.86,47.27,23.46,46.82,23.35z M35.05,31.43c-2.99,0-5.43-2.43-5.44-5.42c0-2.88,2.23-5.25,5.09-5.42
		c0.09-0.01,0.21-0.02,0.35-0.02c2.99,0,5.43,2.44,5.43,5.42C40.48,28.99,38.04,31.43,35.05,31.43z" fill="#d85b53" class="color000000 svgShape"></path></svg>