<svg xmlns="http://www.w3.org/2000/svg" enable-background="new 0 0 64 64" viewBox="0 0 64 64"><path fill="#d45985" d="M52.99 11h7.78c.8 0 1.45-.65 1.45-1.45 0-.8-.65-1.45-1.45-1.45h-7.78c-.8 0-1.45.65-1.45 1.45C51.54 10.35 52.19 11 52.99 11zM52.99 15.18h7.78c.8 0 1.45-.65 1.45-1.45 0-.8-.65-1.45-1.45-1.45h-7.78c-.8 0-1.45.65-1.45 1.45C51.54 14.53 52.19 15.18 52.99 15.18zM52.99 19.37h7.78c.8 0 1.45-.65 1.45-1.45 0-.8-.65-1.45-1.45-1.45h-7.78c-.8 0-1.45.65-1.45 1.45C51.54 18.72 52.19 19.37 52.99 19.37zM52.99 23.56h7.78c.8 0 1.45-.65 1.45-1.45 0-.8-.65-1.45-1.45-1.45h-7.78c-.8 0-1.45.65-1.45 1.45C51.54 22.91 52.19 23.56 52.99 23.56z" class="color231f5c svgShape"></path><path fill="#d45985" d="M63.03,26.82H49.43V4.31c0-2.3-1.88-4.18-4.18-4.18H19.39c-2.3,0-4.16,1.87-4.16,4.18v17.97H1.45
		c-0.8,0-1.45,0.65-1.45,1.45c0,0.8,0.65,1.45,1.45,1.45h13.78V59.7c0,2.3,1.87,4.17,4.16,4.17h25.85c2.31,0,4.18-1.87,4.18-4.17
		V37.18h13.61c0.53,0,0.97-0.43,0.97-0.97v-8.44C64,27.25,63.57,26.82,63.03,26.82z M30.14,3.82h4.36c0.54,0,0.97,0.43,0.97,0.97
		c0,0.54-0.43,0.97-0.97,0.97h-4.36c-0.53,0-0.97-0.43-0.97-0.97C29.17,4.26,29.61,3.82,30.14,3.82z M33.35,60.18H31.3
		c-0.54,0-0.97-0.43-0.97-0.97s0.43-0.97,0.97-0.97h2.05c0.53,0,0.97,0.43,0.97,0.97S33.88,60.18,33.35,60.18z M46.53,54.59h-28.4
		V25.18h22.65c0.8,0,1.45-0.65,1.45-1.45c0-0.8-0.65-1.45-1.45-1.45H18.12V9.48h28.4v17.34H26.32c-0.53,0-0.97,0.43-0.97,0.97v8.44
		c0,0.53,0.43,0.97,0.97,0.97h20.21V54.59z M46.16,32.97H29.77c-0.54,0-0.97-0.43-0.97-0.97c0-0.53,0.43-0.97,0.97-0.97h16.39
		c0.53,0,0.97,0.43,0.97,0.97C47.13,32.54,46.69,32.97,46.16,32.97z M58.88,32.97h-9.15c-0.53,0-0.97-0.43-0.97-0.97
		c0-0.53,0.43-0.97,0.97-0.97h9.15c0.53,0,0.97,0.43,0.97,0.97C59.84,32.54,59.41,32.97,58.88,32.97z" class="color231f5c svgShape"></path><path fill="#d45985" d="M1.45 20.36h10.16c.53 0 .97-.43.97-.97V9.24c0-.53-.43-.97-.97-.97H1.45c-.54 0-.97.43-.97.97v10.16C.49 19.92.91 20.36 1.45 20.36zM4.55 13.34h1.01v-1.01c0-.53.43-.97.97-.97.54 0 .97.43.97.97v1.01h1.01c.54 0 .97.43.97.97 0 .54-.43.97-.97.97H7.49v1.02c0 .53-.43.97-.97.97-.53 0-.97-.43-.97-.97v-1.02H4.55c-.53 0-.97-.43-.97-.97C3.58 13.78 4.01 13.34 4.55 13.34zM11.88 37.58H1.18c-.53 0-.97.43-.97.97v19.92c0 .53.43.97.97.97h10.7c.53 0 .97-.43.97-.97V38.55C12.85 38.01 12.41 37.58 11.88 37.58zM7.97 53.92H5.09c-.53 0-.97-.43-.97-.97 0-.53.43-.97.97-.97h2.88c.54 0 .97.43.97.97C8.93 53.49 8.51 53.92 7.97 53.92zM7.97 49.47H5.09c-.53 0-.97-.43-.97-.97 0-.53.43-.97.97-.97h2.88c.54 0 .97.43.97.97C8.93 49.03 8.51 49.47 7.97 49.47zM7.97 45.01H5.09c-.53 0-.97-.43-.97-.97 0-.53.43-.97.97-.97h2.88c.54 0 .97.43.97.97C8.93 44.59 8.51 45.01 7.97 45.01z" class="color231f5c svgShape"></path><circle cx="6.53" cy="30.95" r="3.95" fill="#d45985" class="color231f5c svgShape"></circle></svg>