<svg xmlns="http://www.w3.org/2000/svg" viewBox="0 0 48 48"><path d="M41,36H40V16a1,1,0,0,0-1-1H30.71L24.85,5.48a.69.69,0,0,0-.11-.13,1,1,0,0,0-1.48,0,.69.69,0,0,0-.11.13L17.29,15H9a1,1,0,0,0-1,1V36H7a2,2,0,0,0-2,2v1a4,4,0,0,0,4,4H39a4,4,0,0,0,4-4V38A2,2,0,0,0,41,36ZM18,27H30v2H18Zm1.66-2-2.54-5.92L23,9.53v7.65a3,3,0,1,0,2,0V9.53l5.88,9.55L28.34,25ZM24,19a1,1,0,1,1-1,1A1,1,0,0,1,24,19ZM10,17h6.06l-.91,1.48a1,1,0,0,0-.07.91L17.48,25H17a1,1,0,0,0-1,1v4a1,1,0,0,0,1,1H31a1,1,0,0,0,1-1V26a1,1,0,0,0-1-1h-.48l2.4-5.61a1,1,0,0,0-.07-.91L31.94,17H38V33H10Zm0,18H38v1H30a1,1,0,0,0-.89.55L28.38,38H19.62l-.73-1.45A1,1,0,0,0,18,36H10Zm31,4a2,2,0,0,1-2,2H9a2,2,0,0,1-2-2V38H17.38l.73,1.45A1,1,0,0,0,19,40H29a1,1,0,0,0,.89-.55L30.62,38H41Z" data-name="Layer 5" fill="#d85b53" class="color000000 svgShape"></path></svg>